<?xml version="1.0" encoding="UTF-8" standalone="no"?>
<!-- Created with Inkscape (http://www.inkscape.org/) -->

<svg
   width="512"
   height="512"
   viewBox="0 0 512 512"
   version="1.1"
   id="svg1"
   xml:space="preserve"
   inkscape:version="1.3.2 (091e20e, 2023-11-25, custom)"
   sodipodi:docname="logo.svg"
   inkscape:export-filename="logo.png"
   inkscape:export-xdpi="96"
   inkscape:export-ydpi="96"
   xmlns:inkscape="http://www.inkscape.org/namespaces/inkscape"
   xmlns:sodipodi="http://sodipodi.sourceforge.net/DTD/sodipodi-0.dtd"
   xmlns="http://www.w3.org/2000/svg"
   xmlns:svg="http://www.w3.org/2000/svg"><sodipodi:namedview
     id="namedview1"
     pagecolor="#ffffff"
     bordercolor="#000000"
     borderopacity="0.25"
     inkscape:showpageshadow="2"
     inkscape:pageopacity="0.0"
     inkscape:pagecheckerboard="0"
     inkscape:deskcolor="#d1d1d1"
     inkscape:document-units="px"
     inkscape:zoom="0.82075689"
     inkscape:cx="272.30962"
     inkscape:cy="258.90736"
     inkscape:window-width="1366"
     inkscape:window-height="697"
     inkscape:window-x="-8"
     inkscape:window-y="-8"
     inkscape:window-maximized="1"
     inkscape:current-layer="g4" /><defs
     id="defs1" /><g
     inkscape:label="Layer 1"
     inkscape:groupmode="layer"
     id="layer1"><g
       id="g4"><path
         style="fill:#000000;stroke-width:1.06468"
         d="m 179.54387,453.84663 c -11.10539,-6.77194 -10.2272,-23.72478 2.84642,-54.94871 7.07994,-16.90912 9.7897,-26.21345 11.19985,-38.45619 l 0.74468,-6.46524 -11.79837,-10.2933 c -64.88575,-56.60854 -76.301,-120.97187 -30.34583,-171.10086 7.73156,-8.43377 7.62173,-8.46651 7.83678,2.33616 0.33611,16.884 5.75377,28.16082 24.82492,51.67289 22.76729,28.06887 25.08016,42.11789 11.44494,69.51965 -5.76116,11.57781 -4.75547,11.48579 -15.36682,1.40605 C 159.29782,276.96821 145.4639,250.78844 143.35652,226.411 l -0.85031,-9.83613 -1.43663,4.66145 c -16.1346,52.35224 54.01373,130.32045 152.42051,169.41181 56.28121,22.35728 86.00745,-13.55722 59.96374,-72.44666 l -2.84337,-6.42938 3.26871,-3.13163 3.26871,-3.13162 4.94439,8.46597 c 21.18906,36.28068 26.62937,76.98892 13.32326,99.69408 -16.65624,28.42171 -72.29653,17.2891 -138.94863,-27.80109 -6.88826,-4.65991 -12.84586,-8.62352 -13.23911,-8.80801 -0.39325,-0.18449 -2.87901,3.30711 -5.5239,7.75911 -2.64489,4.45201 -6.85136,9.71224 -9.34772,11.68938 -10.78954,8.54548 -19.88994,34.02418 -17.73149,49.6435 1.44706,10.47138 -2.28148,13.06058 -11.08081,7.69485 z m 132.43347,-62.58172 c -8.95991,-2.40813 -25.6754,-9.23503 -33.21531,-13.56573 l -6.37929,-3.66408 0.62717,-8.22554 c 0.34493,-4.52404 1.65219,-11.37202 2.90501,-15.21772 2.40003,-7.3672 3.46849,-9.01157 23.61756,-36.34743 14.71524,-19.96389 15.13124,-20.71219 10.54537,-18.96864 -13.8845,5.27887 -38.01187,23.32262 -58.0113,43.38397 l -16.16011,16.21016 -5.39914,-3.80192 c -5.78496,-4.07362 -23.44708,-17.1712 -24.95632,-18.50671 -0.50123,-0.44353 3.53414,-10.29425 8.9675,-21.89047 28.20408,-60.19496 29.25968,-108.47277 3.2105,-146.83188 -15.75327,-23.19772 -53.1239,-44.32851 -74.19617,-41.95336 -6.3845,0.71963 -6.55212,0.30838 -0.87423,-2.14486 20.99415,-9.07089 68.82016,5.6189 92.01224,28.26162 10.51493,10.26584 9.48938,6.79357 -2.42885,-8.22356 l -3.35447,-4.22668 2.8356,-5.51013 c 8.58674,-16.68566 30.14464,-17.53579 42.26923,-1.66687 2.60321,3.40713 6.05903,6.9993 7.6796,7.9826 2.81934,1.71068 2.94484,2.2581 2.90817,12.68626 l -0.0383,10.89841 -4.37011,4.47541 c -10.06507,10.30755 -1.10149,20.64097 12.52767,14.44216 34.6765,-15.77156 56.85404,-54.037 47.73968,-82.370753 -1.47299,-4.57908 3.05336,2.00509 6.44564,9.376013 12.36879,26.87563 7.19339,45.35258 -20.9034,74.62813 -17.73623,18.48034 -23.1822,26.63987 -27.5823,41.3257 -1.63234,5.44808 -4.29323,14.35471 -5.91311,19.79253 -2.96033,9.93754 -9.07235,23.29965 -13.56582,29.6576 -2.32561,3.29057 -2.33103,3.38395 -0.14509,2.50079 64.42721,-26.02994 93.54088,-26.64117 91.16492,-1.914 -1.18573,12.34011 -4.67419,16.90528 -37.7795,49.4401 -28.08508,27.60109 -36.10671,36.72184 -39.70622,45.14674 -1.25638,2.94063 -1.02659,3.1846 7.63246,8.10343 9.44662,5.36621 19.99882,14.33235 19.99882,16.99289 0,1.89679 -0.0349,1.89561 -8.10808,-0.27418 z M 102.94125,159.09024 C 77.803087,147.41812 75.742333,145.94753 77.61647,141.01816 c 2.11814,-5.57112 4.619023,-5.03417 29.51221,6.33641 29.1486,13.31435 31.8378,15.55353 25.53254,21.25971 -3.10711,2.81189 -3.25247,2.76531 -29.71997,-9.52404 z m 276.17572,9.32156 c -5.48527,-6.06116 -3.46687,-7.71578 25.70159,-21.06936 24.88194,-11.39119 27.41269,-11.93438 29.53956,-6.34029 1.65011,4.34011 -0.23664,6.63698 -8.45769,10.29612 -4.03792,1.79725 -15.12001,6.86254 -24.62689,11.25621 -19.07662,8.81636 -19.40105,8.90212 -22.15657,5.85732 z M 115.54961,144.24853 c -14.73403,-6.77052 -28.760496,-13.12235 -31.169902,-14.11517 -4.856469,-2.00116 -6.532565,-5.64071 -4.417586,-9.59257 1.971992,-3.68471 5.714219,-3.05032 19.982871,3.38755 15.533177,7.0084 13.594247,7.03489 18.532267,-0.25322 60.60643,-89.450169 203.25452,-91.301509 272.31591,-3.53421 4.16084,5.28784 7.72575,9.61426 7.92202,9.61426 0.19627,0 6.2416,-2.62207 13.43406,-5.82683 16.933,-7.54484 22.73343,-7.10279 20.5382,1.56525 -1.15842,4.57411 -62.92665,32.12519 -66.37315,29.60506 -6.62863,-4.84697 2.37634,-13.03427 23.11034,-21.01189 2.05262,-0.78976 -5.477,-10.38979 -18.06316,-23.02991 -64.48805,-64.764657 -167.59741,-64.272615 -231.90765,1.10667 -11.67661,11.8707 -18.8468,21.17334 -16.89779,21.92324 20.00167,7.69585 28.89037,15.1407 23.96164,20.06941 -3.19443,3.19443 -0.76106,3.97295 -30.96807,-9.90764 z"
         id="path4" /></g></g></svg>
